<?xml version="1.0" encoding="utf-8"?>
<!-- Generator: Adobe Illustrator 24.1.1, SVG Export Plug-In . SVG Version: 6.00 Build 0)  -->
<svg version="1.1" id="Layer_1" xmlns="http://www.w3.org/2000/svg" xmlns:xlink="http://www.w3.org/1999/xlink" x="0px" y="0px"
	 viewBox="0 0 192 192" style="enable-background:new 0 0 192 192;" xml:space="preserve">
<style type="text/css">
	.st0{fill:#333333;}
	.st1{fill:url(#SVGID_1_);}
	.st2{fill:none;stroke:#000000;stroke-width:32;stroke-linecap:round;stroke-linejoin:round;stroke-miterlimit:10;}
	.st3{fill:none;stroke:#000000;stroke-width:32;stroke-miterlimit:10;}
	.st4{fill:url(#SVGID_2_);}
	.st5{fill:#CBC3BB;}
	.st6{fill:url(#SVGID_3_);}
	.st7{fill:url(#SVGID_4_);}
	.st8{fill:#05A1D1;}
	.st9{fill:#055999;}
	.st10{fill:#990499;}
	.st11{fill:#E5E5E5;}
	.st12{fill:url(#SVGID_5_);}
	.st13{fill:url(#SVGID_6_);}
	.st14{fill:url(#SVGID_7_);}
	.st15{fill:#D6D4D4;}
	.st16{fill:#CCCCCC;}
	.st17{fill:url(#SVGID_8_);}
	.st18{fill:url(#SVGID_9_);}
	.st19{fill:url(#SVGID_10_);}
	.st20{fill:#FFFFFF;}
</style>
<rect x="-10" y="-10" class="st0" width="212" height="212"/>
<g>
	<g>
		<path class="st20" d="M37.8,124.5c-5.5,0-10.3-1.2-14.6-3.5c-4.2-2.3-7.6-5.6-10-9.9c-2.4-4.2-3.6-9.1-3.6-14.7
			c0-5.6,1.2-10.6,3.6-15c2.4-4.4,5.7-7.8,9.9-10.3c4.2-2.4,9.2-3.7,14.9-3.7c5.3,0,10.1,1.2,14.2,3.5c4.1,2.3,7.3,5.5,9.6,9.6
			s3.5,8.6,3.5,13.5c0,0.8,0,1.6-0.1,2.5c0,0.9-0.1,1.8-0.2,2.7H23.5c0.3,4.2,1.8,7.6,4.4,10c2.7,2.4,5.9,3.6,9.7,3.6
			c2.9,0,5.2-0.6,7.2-1.9c1.9-1.3,3.4-2.9,4.3-5h14.3c-1,3.4-2.7,6.6-5.1,9.4c-2.4,2.8-5.3,5-8.8,6.6
			C46.1,123.7,42.2,124.5,37.8,124.5z M37.9,78.9c-3.4,0-6.5,1-9.1,2.9c-2.6,1.9-4.3,4.9-5,8.8h27.1c-0.2-3.6-1.5-6.4-4-8.6
			C44.5,79.9,41.5,78.9,37.9,78.9z"/>
		<path class="st20" d="M97,124.5c-4.8,0-9.1-0.8-12.7-2.4c-3.7-1.6-6.6-3.7-8.8-6.5c-2.2-2.8-3.5-6-4-9.7h14.2
			c0.4,2.1,1.6,3.9,3.6,5.4c1.9,1.5,4.4,2.2,7.5,2.2c3.1,0,5.3-0.6,6.7-1.9c1.4-1.2,2.1-2.7,2.1-4.3c0-2.3-1-3.9-3.1-4.8
			c-2-0.8-4.9-1.7-8.6-2.5c-2.3-0.5-4.7-1.1-7.1-1.9s-4.6-1.7-6.6-2.8c-2-1.1-3.6-2.6-4.9-4.4c-1.2-1.8-1.9-4-1.9-6.6
			c0-4.8,1.9-8.9,5.8-12.2c3.8-3.3,9.2-4.9,16.2-4.9c6.4,0,11.6,1.5,15.4,4.5c3.8,3,6.1,7.1,6.9,12.4h-13.3c-0.8-4-3.8-6-9.1-6
			c-2.6,0-4.7,0.5-6.1,1.5c-1.4,1-2.1,2.3-2.1,3.8c0,1.6,1.1,2.9,3.2,3.8c2.1,0.9,4.9,1.8,8.4,2.6c3.8,0.9,7.3,1.9,10.5,2.9
			c3.2,1.1,5.7,2.6,7.6,4.7c1.9,2.1,2.9,5.1,2.9,8.9c0.1,3.4-0.8,6.4-2.6,9.1c-1.8,2.7-4.5,4.8-7.9,6.4
			C105.7,123.8,101.7,124.5,97,124.5z"/>
		<path class="st20" d="M155.7,124.5c-5.6,0-10.5-1.2-14.7-3.6c-4.2-2.4-7.6-5.8-10-10.1c-2.5-4.3-3.7-9.3-3.7-14.8
			c0-5.6,1.2-10.5,3.7-14.8c2.4-4.3,5.8-7.7,10-10.1c4.2-2.4,9.1-3.6,14.7-3.6c6.9,0,12.8,1.8,17.6,5.4c4.8,3.6,7.8,8.6,9.1,15
			h-14.8c-0.7-2.6-2.2-4.7-4.3-6.2s-4.7-2.3-7.6-2.3c-3.9,0-7.2,1.5-9.9,4.4c-2.7,2.9-4.1,7-4.1,12.2s1.4,9.3,4.1,12.2
			c2.7,2.9,6,4.4,9.9,4.4c2.9,0,5.5-0.7,7.6-2.2c2.2-1.5,3.6-3.5,4.3-6.3h14.8c-1.3,6.1-4.4,11.1-9.1,14.8
			C168.5,122.7,162.7,124.5,155.7,124.5z"/>
	</g>
</g>
</svg>
